Coordinates
version=1
nRows=22
nColumns=24
inDegrees=yes

Units are S.I. units (second, meters, Newtons, ...)
Angles are in degrees.

endheader
time	pelvis_tilt	pelvis_list	pelvis_rotation	pelvis_tx	pelvis_ty	pelvis_tz	hip_flexion_r	hip_adduction_r	hip_rotation_r	knee_angle_r	ankle_angle_r	subtalar_angle_r	mtp_angle_r	hip_flexion_l	hip_adduction_l	hip_rotation_l	knee_angle_l	ankle_angle_l	subtalar_angle_l	mtp_angle_l	lumbar_extension	lumbar_bending	lumbar_rotation
      1.16216667	     -0.07714967	     -3.96556816	     -0.66967482	     -0.16819889	      1.01247068	      0.33275781	    -16.68464796	      8.57692463	      1.89352256	     -5.49247782	     11.57050069	     -3.95755726	      2.34112250	     18.59109316	     -4.05859737	     -1.47759000	     11.52369432	      1.73814131	     -6.59443358	     -8.63608636	     -3.76104680	      1.72990045	      6.46359634
      1.16633333	     -0.08653090	     -3.81377772	     -0.79368726	     -0.16246324	      1.01164252	      0.33250544	    -16.86906335	      8.35207443	      1.92740240	     -5.80173604	     11.66063077	     -3.94363771	      2.34939572	     18.67787688	     -3.88565074	     -1.36116212	     11.09806844	      1.85612199	     -6.70444775	     -8.62546631	     -3.74927093	      1.54655810	      6.49241733
      1.17050000	     -0.09270225	     -3.64797625	     -0.89940829	     -0.15669256	      1.01084268	      0.33219797	    -17.02055083	      8.10782332	      1.83257098	     -6.19318437	     11.92379383	     -3.62430188	      2.39029906	     18.78086853	     -3.68965191	     -1.25511866	     10.57979916	      1.90932745	     -6.80269575	     -8.55871465	     -3.70009245	      1.33080586	      6.67155697
      1.17466667	     -0.08387736	     -3.46662466	     -0.99482592	     -0.15088545	      1.01009318	      0.33191061	    -17.20959669	      7.86409137	      1.87422273	     -6.53047261	     12.00009126	     -3.66006812	      2.40072360	     18.87285373	     -3.47675715	     -1.13896409	      9.99930874	      1.94725963	     -6.93342073	     -8.53504297	     -3.68341764	      1.10782043	      6.69302125
      1.17883333	     -0.09005208	     -3.25666056	     -1.08142345	     -0.14500575	      1.00935036	      0.33159878	    -17.35552774	      7.58723814	      1.82355147	     -6.93282644	     12.19524426	     -3.47603057	      2.45110644	     18.98302071	     -3.23028151	     -1.01594331	      9.36740443	      1.88770434	     -7.11833864	     -8.40867883	     -3.61118913	      0.82975289	      6.83393252
      1.18300000	     -0.06291611	     -3.05217293	     -1.16054572	     -0.13913407	      1.00868665	      0.33128304	    -17.53006326	      7.32593686	      1.83300420	     -7.33898896	     12.26064953	     -3.52069214	      2.47286875	     19.07280704	     -2.98671047	     -0.91441826	      8.66942544	      1.83418000	     -7.28662304	     -8.34704165	     -3.58541626	      0.55279954	      6.86726719
      1.18716667	     -0.05135449	     -2.82664393	     -1.23913886	     -0.13321907	      1.00802944	      0.33093493	    -17.65448581	      7.03591979	      1.76456490	     -7.81867624	     12.40120210	     -3.36442940	      2.56978930	     19.17014762	     -2.71890478	     -0.77286202	      7.96195968	      1.61934524	     -7.60283627	     -8.06724934	     -3.54979788	      0.27344090	      7.00800414
      1.19133333	     -0.02243826	     -2.58597102	     -1.29271565	     -0.12724210	      1.00743051	      0.33057974	    -17.81925672	      6.75000712	      1.78741001	     -8.24913678	     12.42038432	     -3.46795955	      2.60332750	     19.26379186	     -2.42772737	     -0.67437298	      7.19404069	      1.45614383	     -7.78136647	     -7.96758760	     -3.50674018	     -0.05061423	      7.01775024
      1.19550000	     -0.00781255	     -2.34396856	     -1.35854429	     -0.12125783	      1.00684195	      0.33020454	    -17.92218959	      6.45318069	      1.74588298	     -8.77454366	     12.46893934	     -3.42974832	      2.75373199	     19.35049188	     -2.13701892	     -0.47940787	      6.45911296	      1.06177378	     -8.26660211	     -7.54254686	     -3.46628088	     -0.34602518	      7.12030478
      1.19966667	      0.03523860	     -2.08347016	     -1.39218143	     -0.11522627	      1.00633095	      0.32980795	    -18.07178651	      6.15656350	      1.75715434	     -9.26252999	     12.43694851	     -3.57532421	      2.79228727	     19.44033858	     -1.81695758	     -0.40483172	      5.63387121	      0.81368054	     -8.43113288	     -7.43585929	     -3.42967821	     -0.70111952	      7.11862600
      1.20383333	      0.05142078	     -1.82999380	     -1.44019149	     -0.10918510	      1.00581849	      0.32939503	    -18.15078931	      5.85961654	      1.73771273	     -9.83509172	     12.39836730	     -3.63685091	      2.98768929	     19.51921892	     -1.50601420	     -0.16973505	      4.88862807	      0.27016784	     -9.02797898	     -6.94653505	     -3.38156936	     -1.00630761	      7.18447010
      1.20800000	      0.09755089	     -1.54526580	     -1.45964611	     -0.10309761	      1.00539364	      0.32895647	    -18.26099976	      5.54445073	      1.71128412	    -10.40517981	     12.31303049	     -3.80809454	      3.02363994	     19.60733797	     -1.15477444	     -0.11861835	      4.03916053	     -0.05190755	     -9.17145621	     -6.86080393	     -3.35694796	     -1.37977701	      7.17940971
      1.21216667	      0.11641483	     -1.28206068	     -1.48457239	     -0.09700747	      1.00496743	      0.32847973	    -18.31274832	      5.24725788	      1.69197637	    -11.03251370	     12.20710889	     -3.89777026	      3.26276291	     19.67549314	     -0.82264443	      0.16160020	      3.29848051	     -0.72769660	     -9.85091869	     -6.36145735	     -3.29417321	     -1.70552460	      7.20441711
      1.21633333	      0.16424655	     -0.97581520	     -1.48808246	     -0.09087400	      1.00463818	      0.32798790	    -18.38186242	      4.91499822	      1.63431439	    -11.68292080	     12.05555123	     -4.08517134	      3.29982797	     19.75693964	     -0.44276207	      0.19980902	      2.44533984	     -1.09796124	     -9.97130993	     -6.28833021	     -3.27682791	     -2.08197733	      7.19809389
      1.22050000	      0.15530391	     -0.70647390	     -1.49771373	     -0.08474129	      1.00427530	      0.32748092	    -18.36142708	      4.62122074	      1.60660989	    -12.38772587	     11.87114849	     -4.20791551	      3.59012986	     19.84865507	     -0.09943635	      0.49521712	      1.70813686	     -1.85029534	    -10.67217066	     -5.80481194	     -3.15788305	     -2.43024853	      7.18971604
      1.22466667	      0.25029465	     -0.38991156	     -1.47905867	     -0.07858145	      1.00410136	      0.32694964	    -18.44913384	      4.28489605	      1.51797332	    -13.08338189	     11.56037312	     -4.43091153	      6.01886629	     19.85766886	      0.29728107	      0.57927705	      0.90523810	     -2.43873960	    -10.92249257	     -2.20226605	     -3.19188339	     -2.85087491	      7.17721615
      1.22883333	      0.24358891	     -0.09426781	     -1.47134450	     -0.07243226	      1.00384960	      0.32639141	    -18.37161643	      3.96571093	      1.42295726	    -13.89603218	     11.31856689	     -4.54300912	      6.05005507	     19.97608364	      0.67050304	      0.70777707	      0.08720750	     -2.96380054	    -11.24649344	     -2.18538869	     -3.08159893	     -3.21718240	      7.13598756
      1.23300000	      0.30194822	      0.22153809	     -1.44578483	     -0.06626460	      1.00374230	      0.32582053	    -18.35286748	      3.63056524	      1.29023053	    -14.72148199	     11.00762900	     -4.70797046	      6.06840234	     20.02499712	      1.06692148	      0.77793348	     -0.74076676	     -3.38791517	    -11.40214995	     -2.18002569	     -3.04683244	     -3.63585797	      7.11469496
      1.23716667	      0.31802358	      0.53138435	     -1.41198566	     -0.06011748	      1.00362244	      0.32519692	    -18.24902040	      3.29999654	      1.14288958	    -15.62076481	     10.68703083	     -4.80268493	      6.21107502	     20.08631752	      1.46734997	      1.03201928	     -1.49800858	     -3.98911766	    -11.92944153	     -2.13713757	     -2.99271944	     -4.00463357	      7.03761774
      1.24133333	      0.39002276	      0.85682331	     -1.37127791	     -0.05396050	      1.00364334	      0.32459157	    -18.18854184	      2.95510407	      0.97205130	    -16.53913706	     10.27580852	     -4.94542356	      6.27222538	     20.10889674	      1.87657164	      1.10732203	     -2.31617459	     -4.34908748	    -12.05209531	     -2.12402096	     -2.98823958	     -4.43705244	      7.00665386
      1.24550000	      0.40571775	      1.16398483	     -1.31811275	     -0.04782555	      1.00363329	      0.32392243	    -18.02017120	      2.62471895	      0.74874586	    -17.54507300	      9.87187251	     -5.02031918	      6.50189960	     20.18378688	      2.27594397	      1.27352383	     -3.11778009	     -4.79125475	    -12.40064429	     -2.08380238	     -2.92103549	     -4.80600048	      6.89656421
      1.24966667	      0.47316704	      1.49084943	     -1.26676281	     -0.04168043	      1.00374652	      0.32324128	    -17.87863781	      2.26205279	      0.47579209	    -18.59461950	      9.38751081	     -5.06860447	      7.14749171	     20.18288484	      2.69635575	      1.42802416	     -3.89492548	     -5.11120450	    -12.70294615	     -2.00032291	     -2.91483787	     -5.20334284	      6.76069520
